HIERARCHY
ROOT hip
{
  OFFSET 0.00112043 5.09927 -9.65472
  CHANNELS 6 Xposition Yposition Zposition Zrotation Xrotation Yrotation
  JOINT abdomen
  {
    OFFSET 0 -1.186 -1.5018
    CHANNELS 3 Zrotation Xrotation Yrotation
    JOINT abdomen2
    {
      OFFSET 0 9.964 0.2134
      CHANNELS 3 Zrotation Xrotation Yrotation
      JOINT chest
      {
        OFFSET 0 13.134 -3.2573
        CHANNELS 3 Zrotation Xrotation Yrotation
        JOINT neck
        {
          OFFSET 0 20.686 -1.6905
          CHANNELS 3 Zrotation Xrotation Yrotation
          JOINT head
          {
            OFFSET 0 7.238 -0.1237
            CHANNELS 3 Zrotation Xrotation Yrotation
            End Site
            {
              OFFSET 0 0 0
            }
          }
        }
        JOINT lCollar
        {
          OFFSET 1.7069 20.075 5.0056
          CHANNELS 3 Zrotation Xrotation Yrotation
          JOINT lShldr
          {
            OFFSET 13.6458 -0.047 -4.849
            CHANNELS 3 Zrotation Xrotation Yrotation
            JOINT lForeArm
            {
              OFFSET 28.3255 -0.9759 2.2888
              CHANNELS 3 Zrotation Xrotation Yrotation
              JOINT lHand
              {
                OFFSET 22.1583 -0.53 10.8316
                CHANNELS 3 Zrotation Xrotation Yrotation
                JOINT lThumb1
                {
                  OFFSET 0.786 0.112 2.5817
                  CHANNELS 3 Zrotation Xrotation Yrotation
                  JOINT lThumb2
                  {
                    OFFSET 0.3601 -0.878 4.2331
                    CHANNELS 3 Zrotation Xrotation Yrotation
                    JOINT lThumb2_End
                    {
                      OFFSET 1.8127 -1.216 2.2227
                      CHANNELS 3 Zrotation Xrotation Yrotation
                      End Site
                      {
                        OFFSET 0.0181 -0.0122 0.0222
                      }
                    }
                  }
                }
                JOINT lCarpal1
                {
                  OFFSET 0.9571 1.114 1.7695
                  CHANNELS 3 Zrotation Xrotation Yrotation
                  JOINT lIndex1
                  {
                    OFFSET 4.1246 0.487 4.1451
                    CHANNELS 3 Zrotation Xrotation Yrotation
                    JOINT lIndex2
                    {
                      OFFSET 3.4052 -1.454 2.7682
                      CHANNELS 3 Zrotation Xrotation Yrotation
                      JOINT lIndex2_End
                      {
                        OFFSET 1.4531 -1.795 1.2713
                        CHANNELS 3 Zrotation Xrotation Yrotation
                        End Site
                        {
                          OFFSET 0.0145 -0.0179 0.0127
                        }
                      }
                    }
                  }
                  JOINT lMid1
                  {
                    OFFSET 5.6954 0.21 2.1184
                    CHANNELS 3 Zrotation Xrotation Yrotation
                    JOINT lMid2
                    {
                      OFFSET 3.9766 -1.54 2.3863
                      CHANNELS 3 Zrotation Xrotation Yrotation
                      JOINT lMid2_End
                      {
                        OFFSET 1.4042 -1.926 1.125
                        CHANNELS 3 Zrotation Xrotation Yrotation
                        End Site
                        {
                          OFFSET 0.014 -0.0193 0.0113
                        }
                      }
                    }
                  }
                }
                JOINT lCarpal2
                {
                  OFFSET 2.0956 0.66 -0.3894
                  CHANNELS 3 Zrotation Xrotation Yrotation
                  JOINT lRing1
                  {
                    OFFSET 5.0395 -0.09 2.4971
                    CHANNELS 3 Zrotation Xrotation Yrotation
                    JOINT lRing2
                    {
                      OFFSET 3.7921 -1.552 1.4806
                      CHANNELS 3 Zrotation Xrotation Yrotation
                      JOINT lRing2_End
                      {
                        OFFSET 1.4655 -1.808 0.9609
                        CHANNELS 3 Zrotation Xrotation Yrotation
                        End Site
                        {
                          OFFSET 0.0147 -0.0181 0.0096
                        }
                      }
                    }
                  }
                  JOINT lPinky1
                  {
                    OFFSET 4.9141 -1.269 0.3591
                    CHANNELS 3 Zrotation Xrotation Yrotation
                    JOINT lPinky2
                    {
                      OFFSET 3.1477 -1.685 0.8462
                      CHANNELS 3 Zrotation Xrotation Yrotation
                      JOINT lPinky2_End
                      {
                        OFFSET 0.8055 -1.585 0.7955
                        CHANNELS 3 Zrotation Xrotation Yrotation
                        End Site
                        {
                          OFFSET 0.0081 -0.0158 0.008
                        }
                      }
                    }
                  }
                }
              }
            }
          }
        }
        JOINT rCollar
        {
          OFFSET -1.7069 20.075 5.0056
          CHANNELS 3 Zrotation Xrotation Yrotation
          JOINT rShldr
          {
            OFFSET -13.6458 -0.047 -4.849
            CHANNELS 3 Zrotation Xrotation Yrotation
            JOINT rForeArm
            {
              OFFSET -28.3255 -0.9759 2.2888
              CHANNELS 3 Zrotation Xrotation Yrotation
              JOINT rHand
              {
                OFFSET -22.1583 -0.53 10.8316
                CHANNELS 3 Zrotation Xrotation Yrotation
                JOINT rThumb1
                {
                  OFFSET -0.786 0.112 2.5817
                  CHANNELS 3 Zrotation Xrotation Yrotation
                  JOINT rThumb2
                  {
                    OFFSET -0.3601 -0.878 4.2331
                    CHANNELS 3 Zrotation Xrotation Yrotation
                    JOINT rThumb2_End
                    {
                      OFFSET -1.8127 -1.216 2.2227
                      CHANNELS 3 Zrotation Xrotation Yrotation
                      End Site
                      {
                        OFFSET -0.0181 -0.0122 0.0222
                      }
                    }
                  }
                }
                JOINT rCarpal1
                {
                  OFFSET -0.9571 1.114 1.7695
                  CHANNELS 3 Zrotation Xrotation Yrotation
                  JOINT rIndex1
                  {
                    OFFSET -4.1246 0.487 4.1451
                    CHANNELS 3 Zrotation Xrotation Yrotation
                    JOINT rIndex2
                    {
                      OFFSET -3.4052 -1.454 2.7682
                      CHANNELS 3 Zrotation Xrotation Yrotation
                      JOINT rIndex2_End
                      {
                        OFFSET -1.4531 -1.795 1.2713
                        CHANNELS 3 Zrotation Xrotation Yrotation
                        End Site
                        {
                          OFFSET -0.0145 -0.018 0.0127
                        }
                      }
                    }
                  }
                  JOINT rMid1
                  {
                    OFFSET -5.6954 0.21 2.1184
                    CHANNELS 3 Zrotation Xrotation Yrotation
                    JOINT rMid2
                    {
                      OFFSET -3.9766 -1.54 2.3863
                      CHANNELS 3 Zrotation Xrotation Yrotation
                      JOINT rMid2_End
                      {
                        OFFSET -1.4042 -1.926 1.125
                        CHANNELS 3 Zrotation Xrotation Yrotation
                        End Site
                        {
                          OFFSET -0.014 -0.0193 0.0113
                        }
                      }
                    }
                  }
                }
                JOINT rCarpal2
                {
                  OFFSET -2.0956 0.66 -0.3894
                  CHANNELS 3 Zrotation Xrotation Yrotation
                  JOINT rRing1
                  {
                    OFFSET -5.0395 -0.09 2.4971
                    CHANNELS 3 Zrotation Xrotation Yrotation
                    JOINT rRing2
                    {
                      OFFSET -3.7921 -1.552 1.4806
                      CHANNELS 3 Zrotation Xrotation Yrotation
                      JOINT rRing2_End
                      {
                        OFFSET -1.4655 -1.808 0.9609
                        CHANNELS 3 Zrotation Xrotation Yrotation
                        End Site
                        {
                          OFFSET -0.0147 -0.0181 0.0096
                        }
                      }
                    }
                  }
                  JOINT rPinky1
                  {
                    OFFSET -4.9141 -1.269 0.3592
                    CHANNELS 3 Zrotation Xrotation Yrotation
                    JOINT rPinky2
                    {
                      OFFSET -3.1477 -1.685 0.8462
                      CHANNELS 3 Zrotation Xrotation Yrotation
                      JOINT rPinky2_End
                      {
                        OFFSET -0.8055 -1.585 0.7955
                        CHANNELS 3 Zrotation Xrotation Yrotation
                        End Site
                        {
                          OFFSET -0.0081 -0.0158 0.008
                        }
                      }
                    }
                  }
                }
              }
            }
          }
        }
      }
    }
  }
  JOINT lThigh
  {
    OFFSET 8.367 -8.2066 0.5982
    CHANNELS 3 Zrotation Xrotation Yrotation
    JOINT lShin
    {
      OFFSET 2.1923 -43.463 -0.4932
      CHANNELS 3 Zrotation Xrotation Yrotation
      JOINT lFoot
      {
        OFFSET 0.7333 -45.8593 -2.6451
        CHANNELS 3 Zrotation Xrotation Yrotation
        End Site
        {
          OFFSET 2.6618 -4.2699 12.3931
        }
      }
    }
  }
  JOINT rThigh
  {
    OFFSET -8.367 -8.2066 0.5982
    CHANNELS 3 Zrotation Xrotation Yrotation
    JOINT rShin
    {
      OFFSET -2.1923 -43.463 -0.4931
      CHANNELS 3 Zrotation Xrotation Yrotation
      JOINT rFoot
      {
        OFFSET -0.7333 -45.8593 -2.6451
        CHANNELS 3 Zrotation Xrotation Yrotation
        End Site
        {
          OFFSET -2.6618 -4.2699 12.3931
        }
      }
    }
  }
}
MOTION
Frames:	4
Frame Time:	0.0333333
0.589215 37.6704 41.5096 -7.60612e-015 -4.80162 180 1.95064 4.17197 -0.522323 3.95517 8.32346 -1.1919 3.95517 8.32346 -1.1919 -27.0094 41.7321 19.0763 -5.03976e-007 -45.0035 -1.69151e-006 -9.62232 -28.5592 22.8963 -61.5433 6.98834 -30.7382 49.5038 -20.2458 -86.8207 -8.69936 -14.1169 -11.2402 3.18055e-015 -6.36111e-015 -1.59028e-015 3.18055e-015 -1.59028e-015 -0 -0 -6.36111e-015 -0 3.18055e-015 -3.18055e-015 -1.59028e-015 -3.18055e-015 -1.59028e-014 9.54166e-015 -3.18055e-015 0 1.59028e-015 3.18055e-015 -3.18055e-015 1.59028e-015 -3.18055e-015 -1.59028e-014 9.54166e-015 -3.18055e-015 0 1.59028e-015 3.18055e-015 -3.18055e-015 1.59028e-015 3.18055e-015 -3.18055e-015 -1.59028e-015 -3.18055e-015 -1.59028e-014 9.54166e-015 -3.18055e-015 0 1.59028e-015 3.18055e-015 -3.18055e-015 1.59028e-015 -3.18055e-015 -1.59028e-014 9.54166e-015 -3.18055e-015 0 1.59028e-015 3.18055e-015 -3.18055e-015 1.59028e-015 19.9051 -61.9532 -30.8185 19.9982 22.8856 -27.8924 41.1164 41.3556 -20.4815 47.7396 -8.92957 49.3299 -4.78731e-006 -2.63121e-006 2.14314e-006 -1.62845e-006 4.14284e-006 1.87237e-006 -2.88564e-006 1.2572e-006 9.00716e-007 1.76556e-031 3.18055e-015 -3.18055e-015 -4.78731e-006 -2.63121e-006 2.14314e-006 -1.62845e-006 4.14284e-006 1.87237e-006 -2.88564e-006 1.2572e-006 9.00716e-007 -4.78731e-006 -2.63121e-006 2.14314e-006 -1.62845e-006 4.14284e-006 1.87237e-006 -2.88564e-006 1.2572e-006 9.00716e-007 1.76556e-031 3.18055e-015 -3.18055e-015 -4.78731e-006 -2.63121e-006 2.14314e-006 -1.62845e-006 4.14284e-006 1.87237e-006 -2.88564e-006 1.2572e-006 9.00716e-007 -4.78731e-006 -2.63121e-006 2.14314e-006 -1.62845e-006 4.14284e-006 1.87237e-006 -2.88564e-006 1.2572e-006 9.00716e-007 2.52704 -12.6712 5.4695 97.6653 84.6532 -93.8483 17.4217 64.6105 -3.57617 -0.711658 -11.0188 -5.39691 -106.675 84.4242 101.83 -15.893 65.4956 2.29786 
0.589181 37.5587 41.4353 -7.57543e-015 -4.55266 180 1.95089 4.38267 -0.540435 3.96066 8.74409 -1.23613 3.96066 8.74407 -1.23612 -26.4669 40.4959 18.2505 1.71566e-006 -45.0035 1.28068e-006 -8.98579 -29.4733 23.5122 -61.5433 6.98835 -30.7383 49.378 -20.5132 -87.1152 -8.94609 -14.566 -10.7529 -2.33249e-006 1.60418e-007 -3.09824e-006 6.36111e-015 3.18055e-015 1.59028e-015 2.33249e-006 -1.60418e-007 3.09824e-006 6.36111e-015 1.59028e-015 -0 -2.33249e-006 1.60418e-007 -3.09824e-006 -3.18055e-015 6.36111e-015 1.59028e-015 2.33249e-006 -1.60418e-007 3.09824e-006 -2.33249e-006 1.60418e-007 -3.09824e-006 -3.18055e-015 6.36111e-015 1.59028e-015 2.33249e-006 -1.60418e-007 3.09824e-006 6.36111e-015 1.59028e-015 -0 -2.33249e-006 1.60418e-007 -3.09824e-006 -3.18055e-015 6.36111e-015 1.59028e-015 2.33249e-006 -1.60418e-007 3.09824e-006 -2.33249e-006 1.60418e-007 -3.09824e-006 -3.18055e-015 6.36111e-015 1.59028e-015 2.33249e-006 -1.60418e-007 3.09824e-006 20.8158 -62.197 -29.7435 20.489 22.6853 -27.5233 41.1164 41.3556 -20.4815 47.2024 -10.3736 49.5998 1.25107e-006 2.87392e-006 1.0009e-006 3.18055e-015 0 -6.36111e-015 1.25107e-006 2.87392e-006 1.0009e-006 -6.36111e-015 3.18055e-015 -0 1.25107e-006 2.87392e-006 1.0009e-006 -1.59028e-014 3.18055e-015 -9.54166e-015 1.25107e-006 2.87392e-006 1.0009e-006 1.25107e-006 2.87392e-006 1.0009e-006 -1.59028e-014 3.18055e-015 -9.54166e-015 1.25107e-006 2.87392e-006 1.0009e-006 -6.36111e-015 3.18055e-015 -0 1.25107e-006 2.87392e-006 1.0009e-006 -1.59028e-014 3.18055e-015 -9.54166e-015 1.25107e-006 2.87392e-006 1.0009e-006 1.25107e-006 2.87392e-006 1.0009e-006 -1.59028e-014 3.18055e-015 -9.54166e-015 1.25107e-006 2.87392e-006 1.0009e-006 2.54598 -12.2851 5.47371 97.6659 84.6533 -93.8489 17.4222 64.6115 -3.57672 -0.724141 -10.6293 -5.40275 -106.7 84.4236 101.856 -15.8938 65.497 2.29867 
0.589147 37.4588 41.3689 -7.54808e-015 -4.33069 180 1.95103 4.57114 -0.556623 3.96562 9.12034 -1.27572 3.96562 9.12033 -1.27572 -26.0081 39.3837 17.5358 -1.36579e-006 -45.0035 5.08551e-007 -8.40222 -30.2862 24.078 -61.5433 6.98834 -30.7382 49.2642 -20.7516 -87.3793 -9.16398 -14.969 -10.3183 -2.4901e-006 -8.08952e-007 -3.91853e-006 -5.43366e-006 3.30055e-006 -4.9769e-007 -9.61457e-007 1.53226e-006 4.13658e-006 -6.36111e-015 4.77083e-015 -0 -2.4901e-006 -8.08952e-007 -3.91853e-006 -5.43366e-006 3.30055e-006 -4.9769e-007 -9.61457e-007 1.53226e-006 4.13658e-006 -2.4901e-006 -8.08952e-007 -3.91853e-006 -5.43366e-006 3.30055e-006 -4.9769e-007 -9.61457e-007 1.53226e-006 4.13658e-006 -6.36111e-015 4.77083e-015 -0 -2.4901e-006 -8.08952e-007 -3.91853e-006 -5.43366e-006 3.30055e-006 -4.9769e-007 -9.61457e-007 1.53226e-006 4.13658e-006 -2.4901e-006 -8.08952e-007 -3.91853e-006 -5.43366e-006 3.30055e-006 -4.9769e-007 -9.61457e-007 1.53226e-006 4.13658e-006 21.6438 -62.408 -28.7688 20.9281 22.5091 -27.1921 41.1164 41.3556 -20.4815 46.7255 -11.6678 49.8304 3.99124e-006 -4.54982e-007 -1.1988e-006 -1.18724e-007 1.75298e-008 -6.38129e-006 9.54166e-015 0 9.54166e-015 6.36111e-015 -3.18055e-015 6.36111e-015 3.99124e-006 -4.54982e-007 -1.1988e-006 -1.18724e-007 1.75298e-008 -6.38129e-006 -3.18055e-015 -6.36111e-015 6.36111e-015 3.99124e-006 -4.54982e-007 -1.1988e-006 -1.18724e-007 1.75298e-008 -6.38129e-006 -3.18055e-015 -6.36111e-015 6.36111e-015 6.36111e-015 -3.18055e-015 6.36111e-015 3.99124e-006 -4.54982e-007 -1.1988e-006 -1.18724e-007 1.75298e-008 -6.38129e-006 -3.18055e-015 -6.36111e-015 6.36111e-015 3.99124e-006 -4.54982e-007 -1.1988e-006 -1.18724e-007 1.75298e-008 -6.38129e-006 -3.18055e-015 -6.36111e-015 6.36111e-015 2.56301 -11.9382 5.47748 97.6446 84.6534 -93.8278 17.4226 64.6123 -3.57715 -0.735574 -10.2744 -5.40826 -106.654 84.4247 101.809 -15.8946 65.4982 2.29941 
0.589111 37.3589 41.3026 -7.52074e-015 -4.10864 180 1.95114 4.75982 -0.572822 3.97069 9.49698 -1.3154 3.97069 9.49697 -1.3154 -25.5731 38.2656 16.8422 1.2802e-006 -45.0035 6.17139e-007 -7.80358 -31.0948 24.6588 -61.5433 6.98835 -30.7382 49.149 -20.9894 -87.6444 -9.37926 -15.3739 -9.88423 -6.36111e-015 0 -3.18055e-015 3.18055e-015 4.77083e-015 -1.59028e-015 3.18055e-015 9.54166e-015 3.18055e-015 -6.36111e-015 -6.36111e-015 -3.18055e-015 3.18055e-015 3.18055e-015 -0 1.27222e-014 3.18055e-015 -1.59028e-015 1.76556e-031 6.36111e-015 -1.59028e-015 3.18055e-015 3.18055e-015 -0 1.27222e-014 3.18055e-015 -1.59028e-015 1.76556e-031 6.36111e-015 -1.59028e-015 -6.36111e-015 -6.36111e-015 -3.18055e-015 3.18055e-015 3.18055e-015 -0 1.27222e-014 3.18055e-015 -1.59028e-015 1.76556e-031 6.36111e-015 -1.59028e-015 3.18055e-015 3.18055e-015 -0 1.27222e-014 3.18055e-015 -1.59028e-015 1.76556e-031 6.36111e-015 -1.59028e-015 22.4856 -62.6124 -27.7805 21.368 22.3351 -26.8597 41.1164 41.3556 -20.4815 46.251 -12.9653 50.0512 -7.06225e-031 6.36111e-015 6.36111e-015 2.65968e-006 -3.3059e-006 -2.24988e-006 1.18588e-007 2.14449e-006 -5.0745e-006 3.18055e-015 0 6.36111e-015 6.36111e-015 -3.18055e-015 6.36111e-015 2.65968e-006 -3.3059e-006 -2.24988e-006 1.18588e-007 2.14449e-006 -5.0745e-006 6.36111e-015 -3.18055e-015 6.36111e-015 2.65968e-006 -3.3059e-006 -2.24988e-006 1.18588e-007 2.14449e-006 -5.0745e-006 3.18055e-015 0 6.36111e-015 6.36111e-015 -3.18055e-015 6.36111e-015 2.65968e-006 -3.3059e-006 -2.24988e-006 1.18588e-007 2.14449e-006 -5.0745e-006 6.36111e-015 -3.18055e-015 6.36111e-015 2.65968e-006 -3.3059e-006 -2.24988e-006 1.18588e-007 2.14449e-006 -5.0745e-006 2.57973 -11.5946 5.48091 97.6595 84.6533 -93.8425 17.423 64.6132 -3.57764 -0.746647 -9.92603 -5.41333 -106.673 84.4243 101.828 -15.8954 65.4995 2.30015 
